<?xml version="1.0" encoding="utf-8"?>
<!-- Generator: Adobe Illustrator 22.1.0, SVG Export Plug-In . SVG Version: 6.00 Build 0)  -->
<svg version="1.1" id="Layer_1" xmlns="http://www.w3.org/2000/svg" xmlns:xlink="http://www.w3.org/1999/xlink" x="0px" y="0px"
	 viewBox="0 0 864 732.9" style="enable-background:new 0 0 864 732.9;" xml:space="preserve">
<style type="text/css">
	.st0{fill:#91D7F6;}
	.st1{fill:#97CA4F;}
	.st2{fill:#333333;}
	.st3{fill:#282A26;}
	.st4{fill:#FFFDFD;}
	.st5{fill:#BBE4F9;}
	.st6{fill:#FAD3D2;}
	.st7{fill:#F1DB0F;}
	.st8{fill:#7FBB43;}
	.st9{display:none;fill:#FFFDFD;}
	.st10{fill:#FFFFFF;}
	.st11{fill:none;}
	.st12{fill:#180000;stroke:#231F20;stroke-width:2;stroke-miterlimit:10;}
	.st13{fill:none;stroke:#231F20;stroke-width:2;stroke-miterlimit:10;}
	.st14{fill:#231F20;}
	.st15{fill:#F27A6B;}
</style>
<path class="st0" d="M668.8,350.6c-13.7-15.7-27.3-31.3-41-47c-0.6-0.6-1.6-1.4-3-2c-4.1-1.8-7.5,0-12,0c-2.4,0-5.8-0.5-10-3
	c-0.7-6.3-1.3-12.7-2-19c-8.7,0.3-17.3,0.7-26,1c0.4,3.8,0.3,6.9,0,9c-0.5,4.4-0.8,7.1-3,9c-1.9,1.7-4.3,1.8-7,2
	c-3.5,0.2-6.3-0.5-8-1c-1.8,0.5-3.8,1.1-6,2c-2.3,1-4.3,2-6,3c-0.7,1.2-1.4,2.5-2,4c-1.6,3.7-2.5,7.1-3,10c-0.6,3.6-1.3,7.3-2,11
	c-1.2,6.2-2.6,12.3-4,18c-1.3,3.9-2.6,9-3,15c-0.2,3.3-0.2,6.3,0,9v30c-0.3,6.7-0.7,13.3-1,20c-0.8,8-1.7,16.1-2.5,24.1
	c2.3,5.8,4.7,10.1,6.5,12.9c2.8,4.4,4.6,6.2,6,10c1.7,4.7,1.6,9,1.3,11.8c7.4,32.8,14.8,65.5,22.2,98.3l-14.3,3.1
	c-2.7,0.6-5.4,1.2-8.1,1.8c-3.7,1.3-7.3,2.7-11,4c-0.9,0.2-1.9,0.5-3,1c-0.7,0.3-1.4,0.7-2,1c-0.3,0.3-0.7,0.7-1,1c-0.6,0.6-1,1-1,1
	c-0.9-0.1-0.9-0.1-1,0c-0.2,0.2,0.1,0.5,0,1c-0.1,0.5-0.6,0.8-1,1c0,0.3,0,0.3,0,1c0.3,0.3,0.7,0.7,1,1c0.2,0.3,0.6,0.7,1,1
	c0.8,0.6,1.5,0.9,2,1c0.3,0,0.6,0,1,0c1.3,0.1,2.4,0.6,3,1c1.7,0.3,3.3,0.7,5,1c1.8,0,4.6,0,8,0c10.8,0.1,12.3,0.3,17,0
	c2.3-0.2,6.7-0.5,12-2c3.1-0.9,7.3-2.4,12-5c-1.2-17.3-1.9-35.7-2-55c-0.1-16,0.3-31.4,1-46c-0.5-5.8,0.2-10.1,1-13
	c1-3.6,2.5-7.2,1-11c-0.6-1.4-1.4-2.4-2-3c6.7-0.3,13.3-0.7,20-1c-2.3,0.7-4.7,1.3-7,2c1.8,7,3.6,14,5.4,21l4.8,100.8l0.4,0.3
	c0,0.1,0.1,0.1,0.1,0.2l0.1,3.1c0,0.7,0.7,1,1.2,0.9c0.1,0,0.1,0.1,0.2,0.1c0,0.4,0.2,0.7,0.7,0.8c0.3,0.1,0.7,0.2,1,0.3
	c-1-0.2-1.9-0.3-2.9-0.5c0.5,0.3,1.2,0.6,2,1c0.7,0.3,1.4,0.6,3,1c1,0.3,2.4,0.6,4,1l8,1c6.7,0.3,13.3,0.7,20,1c4.5,0,8.3-0.5,11-1
	c7.4-1.4,8.6-3,9-4c0.6-1.3,0.3-2.6,0.1-3.6c-12.4-4.1-24.7-8.3-37.1-12.4c2-13.3,4-26.7,6-40c1.6-16.7,2.6-34.4,3-53
	c0.7-35.9-1.5-68.8-5-98c-0.5-0.7-1.1-1.8-1-3c0.4-4.4,9.5-6.2,21-11c4-1.6,9.5-4.2,16-8c0.6-0.4,3.2-2.4,4-6
	C670.5,354,669.1,351.2,668.8,350.6z M640.2,352.9c-0.4,0.4-6,4.3-6.3,4.5c-0.8,0.6-2.5,1.3-3.6,1.8c-3,1.4-3.9,2.1-4.5-1.7
	c-0.2-0.8-1-6.2-1.3-7.8c-0.1-2.6-4.4-12.1-1.1-12.1c2.2,0,8.8,5.8,10.7,7.7C636.3,347.5,642.7,350.4,640.2,352.9z"/>
<g>
	<path class="st1" d="M290.4,373.4c1.3-3.2,3.6-6.2,1-9.8c-0.8-0.8-1.1-4.7-2.7-0.5c-0.2,0.6-0.9,0.5-1.4,0.5
		c-1.7-0.1-3.1,0.7-4.6,1.3c-7,2.8-14,5.5-21.1,8.1c-5.9,2.2-8.7,1.3-10.9-3.1c-5.1-10.1-8.1-21-11.2-31.8
		c-1.1-3.9-1.1-8.6-4.9-11.2c-3.8-2.6-4.4-6.3-4.4-10.7c2.8,2.5,4.9,6.1,9,2.8c1,1.6-0.6,4.1,2.1,5c0.7-2.1-1.5-4.8-0.2-5.7
		c2.9-2,2.4-5.2,3.5-7.7c1.2,0.1,1,1.9,2.5,1.4c0.1-1.1,0.3-2.3,0.1-3.4c-0.3-3.1,4.1-6.6,6.8-6.6c0.9,0,1.8,0,2.3,0.9
		c0.5,1.1-0.4,1.6-1.1,2.1c-2,1.3-4.1,2.9-4.5,5.3c-0.7,3.5-1.1,7-2.5,10.4c-0.4,0.9-0.8,1.8-0.6,2.8c-1-1.1-1.3-0.2-1.4,0.6
		c-0.2,1.9,0.3,3.6,0.9,5.4c2.5,7.9,6,15.3,9.6,22.7c1.3,2.7,4.1,5.9,0.1,9c-0.7,0.6-0.7,1.9,0.1,3.2c0.8-4.7,4.1-6.1,7.8-7.7
		c4.9-2.1,9.8-4.1,15-5.4c4.6-1.1,8.8-4,14-2.5c1.2,0.4,2.3-0.8,1.6-2.5c0.3-1.2,0.5-2.4,0.8-3.7c1.5-2.5,3.8-2.7,6.4-2.1
		c1.3,0.3,2.7,0.2,3.9-1c-1.6-0.3-3.1-0.8-4.6-0.8c-12.8-0.3-23.1-10.6-27.3-21c-3.5-8.7-5.2-17.8-5.4-27
		c-0.2-8.6-1.1-17.2,0.3-25.8c0.8-5.1,2-10.1,2.5-15.2c0.2-2.8,1.4-4.7,3.6-6c6.3-3.8,13.1-5.9,20.3-6.6c13.9-1.3,27.8-1.3,41.6,0.6
		c7,1,10.6,4.1,12.2,10.3c2.7,10.7,4.2,21.7,4,32.9c-0.1,5.8-0.3,11.7-0.5,17.5c-0.5,11.5-3.4,22.2-10.9,31.3
		c-1,1.2-2.1,2.1-3.4,2.9c-6.5,3.8-14,4.4-21,6.5c0.4,0.8,1.1,0.7,1.7,0.7c1.8,0,4-0.7,5.4,0c1.6,0.9,0.9,3.5,1.5,5.3
		c1.7,5.1,1.6,5.1,6.5,3.3c7.3-2.7,15.1-3.1,22.7-4.2c15.1-2.2,30.1-4.1,45.3-4.5c9-0.2,18-0.5,26.5-4.4c2.1-1,4.5-1.9,7.2-1.2
		c7.8,1.9,15.7,2.6,23.6,2c0.9-0.1,2.6-0.8,2.7,0.7c0.1,1.3-0.8,2.7-2.3,3.2c-0.7,0.2-1.5,0.1-2.2,0c-5.7-1-10.9,1.5-16.4,2
		c-1.1,0.1-2.4,0.4-3.2,1.9c1.4-0.2,2.5-0.3,3.6-0.4c0.5-0.1,1.3-0.2,1.3,0.5c0.1,2.1,0.7,4.7-0.3,6.3c-1,1.6-3.6,2-5.8,2
		c-1.1,0-1.5-0.8-1.8-1.6c-0.1-0.3,0.1-0.9,0.4-1.1c0.8-0.7,1.6-0.3,2.3,0.3c0.6,0.5,1.2,1,2.6,0.8c-2.6-2.3,1.8-3.2,0.7-5.4
		c-1.7,0.2-3.2,2.5-4.4,1.6c-2.3-1.6-2.4,0.4-3.2,1.3c-1.6,2.1,0.1,3.6,1,5.2c0.3,0.6,1.2,1.1,0.6,1.9c-0.6,0.8-1.5,0.8-2.3,0.6
		c-1.6-0.3-2.5-1.5-3.6-2.5c-3.1-2.9-6.7-5.3-11-5.3c-3.9,0-7.9,0.8-11.7,1.9c-16.5,4.9-33.6,4.6-50.4,6.6
		c-5.8,0.7-11.1,3.4-17.2,3.3c-1.6,0-4.2,3.3-4.5,6.4c-0.3,4,0.9,7.9,1.3,11.9c0.3,2.8,1.3,3.6,3.7,2c6.5-4.4,13.9-3.9,21.1-4.6
		c9.4-0.9,18.9-1.1,28.2-3.1c3.3-0.7,6.5-1.7,9.8-1.8c12.1-0.4,24.1-0.5,36.2-0.7c4.7-0.1,9.5,0,14.2-0.2c5.3-0.2,10.4-0.7,15.3-3
		c3-1.4,6.3-2.5,9.7-2c5.8,0.9,11.6,2,17.5,2.1c3.1,0,6.1-0.6,9.3-0.1c-1.4,3.8-1.4,4.2-5,3.7c-5.9-0.7-11.2,1.7-16.8,2.3
		c-0.8,0.1-2,0.2-2.3,1.4c1.1,0.4,2.1,0,3.2-0.1c0.5,0,1.3-0.3,1.4,0.4c0.1,2.2,0.7,5-0.3,6.6c-0.9,1.4-3.6,2.1-5.9,1.8
		c-0.9-0.1-1.5-0.9-1.7-1.7c-0.1-0.3,0.3-0.8,0.6-1c0.7-0.4,1.4-0.2,2.1,0.3c0.6,0.5,1.2,1.2,2.5,1c-1.9-2.3,1.7-3.4,1-5.6
		c-1.8,0.3-3.4,2.7-4.7,1.5c-1.8-1.6-2,0-2.5,0.7c-1.7,2-0.8,4,0.5,5.8c0.5,0.7,1.4,1.3,0.6,2.2c-0.8,0.9-1.7,0.6-2.7,0.3
		c-1.2-0.4-1.9-1.4-2.8-2.2c-3.3-3.1-7.1-4.7-11.7-4.4c-5,0.3-10.1,0.3-15.2,0.7c-5.7,0.4-11.4,1.2-17,1.7
		c-9.7,0.8-19.2,3.7-28.9,3.2c-16.8-0.9-32.8,3.5-48.9,7.2c-0.3,0.1-0.6,0-0.9,0c-0.1-0.8,0.9-1.6,0-2.4c-4.4,3-5.6,5.5-4.8,10.8
		c1.9,12.2,3.8,24.4,6.1,36.5c3.5,18.9,1.7,38.1,3.4,57.1c0.8,8.8-0.6,17.9-1.2,26.8c-0.4,5.5-0.6,11-1.7,16.4
		c-3,13.7-5.3,27.6-9.7,41c-0.8,2.3-0.3,3.5,2,4.8c3.4,1.9,7,2.6,10.6,3.7c3.4,1,7-0.1,9.2-2.8c1.4-1.7,2-3.8,2.6-6
		c4.9,4.8,5.3,14.1,0.9,18.4c-4.8,4.8-11.1,4.5-16.9,4.2c-5.7-0.2-11.3-2.3-16.8-4.2c-2.9-1-4.4-2.5-4-5.9
		c0.9-7.8,0.8-15.7,0.8-23.5c-0.1-18.2-1.1-36.4-2.8-54.5c-0.5-5.9-0.5-12.1-3.3-17.6c-0.9-1.8,0.6-1.7,1.5-2
		c1.5-0.5,3.4,0.1,4.4-1.7c-8.5,0-16.8,0-25.7,0c2.5,2.2,4.9,2.8,7.6,2.7c1.4,0,2.3,0.2,1.9,1.9c-1.1,4.9-0.9,9.8-1.5,14.7
		c-1.1,9.2-2.3,18.4-2.4,27.7c-0.3,18.4-0.1,36.8,3.8,55c0.5,2.4-0.2,3.9-3.1,4.6c-5.4,1.3-10.9,2.1-16.4,3.2
		c-4.9,1-9.7,1.5-14.7,0.6c-5-0.9-9.1-3.8-9.7-8.1c-0.5-4,0.4-7.8,3.1-11.5c0.9,2.6,1,4.9,4,6c7.2,2.7,13.5,0.6,19.7-2.6
		c2.1-1.1,2.6-2.4,1.8-4.7c-1.7-5.3-3.2-10.7-4.6-16.1c-3.5-13.5-6.1-27.3-8.2-41.1c-1.7-11.7-3.3-23.5-3.5-35.3
		c-0.3-13.6,0.9-27.1,1.8-40.7c1-15,2.1-30,4.9-44.8c0.4-2.3-0.1-4.1-1.2-6.1c-1.3-2.5-3-2-5.3-2.1c-9.9-0.4-19.9,0.3-29.8-0.4
		c-10.7-0.7-21.3-0.5-32,1c-2.4,0.3-3.6-0.8-4.5-2.7c-1.7-3.7-3.2-7.6-4-11.6c-4.4-21.8-6.6-43.8-6.5-66.1c0-5.2-0.1-10.1-4.5-13.7
		c0.3-0.2,0.6-0.5,0.9-0.7c1.5,0.8,2.6,2.3,4.6,2c1.8-0.3,2.5-2.1,3.8-3c0.8,1.2-0.4,3,1.5,3.9c0.1-1,0-1.8,0.3-2.4
		c1.1-2.5,1-6.2,5.5-5.3c2,0.4,3.6-0.7,5-2.3c1.8-2,4.3-1.8,6.6-0.7c0.8,0.4,1.7,1.3,1.5,2.3c-0.3,1.4-1.5,0.9-2.4,0.8
		c-3.1-0.3-5.1,0.8-5.5,4c-0.2,1.6-1.3,2.4-2.5,3.1c-3,1.6-3.5,4.2-3.7,7.2c-0.4,7.7,0.9,15.2,0.9,22.9c0,6.1,0.7,12.3,1.7,18.3
		c1.6,9.2,2.7,18.5,6.2,27.3c0.3,0.8,1.1,1.9-0.2,2.6c-2.1,1.1-2.8,2.5-1.7,4.5c0.3-0.3,0.9-0.8,1.2-1.5c1.2-3,3.4-3.2,6.3-2.8
		c2.2,0.4,4.4,1,6.7,0.9c15.7-1.3,31.5-1.5,47.3-1.9c3.1-0.1,6.5-0.3,9.4,2C288.9,379.4,289.7,376.4,290.4,373.4z M320.6,324.3
		c-0.7-0.3-1.2,0-1.8,0.3c-3.3,1.7-6.5,2-10.1,0.6c-1.7-0.6-3.4-1.9-5.7-1.7C307.6,328.7,316.1,328.9,320.6,324.3
		c0.1-0.2,0.2-0.3,0.4-0.4c-0.1,0-0.2-0.1-0.3-0.1C320.7,324,320.7,324.2,320.6,324.3z M290.1,260.8c-0.8,0.5-1.5,1-2.3,1.4
		c-1.4-0.4-2.3,0.4-3,1.3c-1.9,2.5-4,2.1-6.4,0.9c-1.1-0.6-2-1.9-3.6-1.8c-0.1,1.3,1.2,1.6,1.4,2.5c-0.1,0.1-0.2,0.3-0.3,0.4
		c-2.2,0.1-1.1,0.8-0.3,1.6c1.6,1.5,4,1.2,5.8,2.5c-2.6,1.6-4.3-1.2-6.6-0.9c0.6,1.3,1.4,2.6,2.7,2.6c3.7,0.2,3.5,2.4,3,5
		c-0.1,0.3,0,0.6,0,1c0,4.9,3.3,9.2,8,10.5c4.1,1.1,8.6-0.9,10.9-5.5c3.2-6.3,3-12.9-0.1-19.2C297.6,259.8,293.4,259,290.1,260.8z
		 M288.6,297.4c0.1,1.1,0.2,1.6,0.2,2.1c0.9,10.7,11.9,21.5,22.2,21.6c9.7,0.1,22.8-10.5,22-23.1c-0.1-0.9-0.5-2.1,0.4-2.7
		c1.2-0.7,1.8,0.7,2.6,1.4c1-2-0.2-2.9-1.4-3.6c-1.5-0.8-3.1-0.9-4.7-0.2c-0.4,0.2-0.7,0.5-0.5,1c0.8,2.3,0.7,2.2-1.3,3.5
		c-8.3,5.4-17.4,4.8-26.5,3.8c-3.2-0.4-6.3-1.4-9.2-2.9c-0.6-0.3-1.4-0.4-0.7-1.4c1.1-1.4,1-1.8-0.7-2c-2.6-0.3-4.7,1.5-5,4.4
		C286.6,298.9,287.4,298.3,288.6,297.4z M343.3,258.5c-4.1,2.8-7.4,2.7-11.4,0c-5.2-3.6-10.6-1.3-12.6,4.8c-2.3,7.2-0.5,14,3.7,19.8
		c2.7,3.8,10.1,5.6,14.5,0.6c2.8-3.2,3.5-6.8,3-10.8c-0.4-3-1.5-6.2,3.1-6.9c0.2,0,0.4-0.5,0.5-0.8c-1.9-0.7-3.9,2.3-5.9-0.2
		c2-0.6,4.4,0,5.5-2.5c-1.6-0.7-2.8,1-4.3,0C340.5,261.1,342.9,261.3,343.3,258.5z M299.1,249c-0.4-3.9-1.1-4.6-4.3-4.6
		c-3.8,0.1-9.1,3.8-10.5,7.4c-0.2,0.5-0.7,1.2,0.3,1.6c1.6-2.6,4-4.5,6.5-6.1C294.8,245,296.2,245.3,299.1,249z M335.1,249.1
		c-2.3-3.9-7.4-6.3-10.9-5c-1.6,0.6-2.6,1.7-1.8,3.7C324.3,244.8,325.4,243.3,335.1,249.1z"/>
	<path class="st2" d="M669.4,350.6c-6.6-8.5-13.3-17-20.3-25.2c-7.3-8.6-14.1-17.7-22.5-25.3c-1.3-1.1-2.6-1.5-4.3-1.8
		c-5.2-1-10.3-0.5-15.5-0.3c-1.6,0.1-2-0.4-2.4-1.7c-0.7-2.4-0.1-5.1-0.8-7.3c-1.8-5.3-0.1-7.5,5-9.8c13.5-5.9,18-18.6,19.9-31.7
		c1.5-10.7,0.7-21.7-1.9-32.4c-0.2-1-0.5-2,0.4-3c8-9.8,11.1-21.1,10.5-33.6c-0.1-3.1-1.5-5.7-2.7-8.5c-0.7,2.1-1.8,4-1.5,6.2
		c-1,0.5-1.4,1.2-1.8,2.3c-0.7,1.9-1.7,3.8-3.6,5.1c0-4-0.2-7.8,0.1-11.5c0.2-2.7-0.3-5.1-1.1-7.6c-2.8-8.2-7.5-15.2-13.3-21.6
		c-1.2-1.3-2.4-4.1-3.7-3.5c-2,0.8-0.9,3.6-1,5.6c-0.2,7,0.8,14.1-1.8,20.8c-5.1,13.4-10.3,16.9-21.8,14.9
		c-7.2-1.3-11.9-4.8-14-11.7c-0.8-2.7-1.3-5.4-1.3-8.3c0.1-5.1,0.1-10.1,0.1-15.2c0-0.7,0.5-1.6-0.4-2.1c-0.7-0.4-1.5,0-2.1,0.5
		c-2.8,2.4-5.9,4.4-7.5,7.9c-3.8,8.1-7.4,16.2-6.9,25.5c0,0.7-0.1,1.4-0.1,2.2c-1.3-0.5-1.1-1.4-1.2-2.2c-0.6-4.6-0.4-9.3-0.4-13.9
		c0-1.2,0.4-2.8-1.1-3.4c-1.6-0.7-2.6,0.6-3.6,1.6c-2.4,2.4-4.1,5.2-5.4,8.3c-3.6,8.1-2.7,16.5-2.1,24.9c0.4,5.5,1.4,11.2,5.3,15.2
		c4.1,4.1,4,8.7,2.8,13.4c-2.5,9.6-2.1,19.3-1.9,29c0.1,2.5,0.2,5.2,1.4,7.6c5.4,10.3,12.6,18.7,24.3,22.2c1.5,0.5,1.9,1.2,2,2.7
		c0.1,3.4-0.7,6.6-1.3,9.9c-0.4,2.4-1.4,3-3.8,3c-5.5-0.1-11.1-0.3-16.4,1.3c-9.2,2.8-11.9,10.4-12.8,18.9
		c-1.1,10.1-3.7,19.8-6,29.6c-1.6,6.8-3.1,13.6-3.7,20.5c-0.8,9.1-0.8,18.2-0.6,27.4c1.7,3.9,1.5,8.9,0.4,13.1
		c0.1,2,0.1,3.9,0.2,5.9c0.1,2.1,0.9,4.1,0.5,6.4c-1.3,7.6-2.5,15.3-3.7,22.9c-0.1,0.8-0.1,1.8,0.2,2.6c1.6,4.3,3,8.8,5.2,12.8
		c0.1,0.3,0.4,0.9,0.7,2c3.6,3.7,5.8,9.4,6.9,14c1.3,5.1,1.8,10.4,1.4,15.7c0,0.2,0,0.3,0,0.5c9.5,35.2,23.3,86.9,25.9,89.6
		c-0.3-1.4-26-112.1-26.2-112.5c-4.7-6.3-7.5-13.7-11.2-20.5c-0.6-1.1-1-2.3-0.8-3.7c1.6-9.9,4.2-19.5,3.5-29.9
		c-1-14.7-0.3-29.6-0.3-44.4c0-3.4,0-7,0.8-10.3c3.7-14.8,7.4-29.7,9.6-44.9c0.5-3.2,1.2-7.2,3.4-9.1c3.5-3,8-5.5,13.2-5
		c4.3,0.4,8.6,0.3,12.9,0c2.5-0.1,3.3-1.5,3.6-3.7c0.4-4,0.8-7.9,1.1-11.9c0.1-1.1,0.1-2,1.6-1.7c6.6,1.4,13.1,0.3,19.6-0.4
		c3.1-0.4,3.6,0.9,3.6,3.5c0,4.2-0.1,8.4,1.1,12.5c0.4,1.4,1,2.1,2.6,2.3c5.7,0.6,11.4,0.8,17.1,0.5c2.5-0.1,4.5,0.7,6,2.4
		c5.6,6.7,11.7,12.9,17.3,19.6c7.2,8.7,13.6,18,21.7,26c4.7,4.6,3.9,9.8-1.6,13.5c-5.3,3.5-11.5,5.2-17.2,8
		c-8.9,4.4-18.2,7.8-26.9,12.6c-4.5,2.5-8.4,5.1-8,11.1c0.1,1.7-1.1,2.9-2.7,3.7c-4.5,2.3-9.1,4.3-13.8,6.1c-4.3,1.6-8.7,1-13,1.9
		c-5.8,1.3-8.7-1.6-7.1-7.3c0.3-0.9,0.7-1.9-0.4-2.6c-3.7-2.1-3-5.2-2.1-8.4c0.4-1.5,0.5-2.7-1.2-3.4c-2.5-1-2.3-3-1.9-5.1
		c0.5-2.2,1.5-4.1,3.9-4.6c4-0.8,7.8-2.3,11.9-2.6c2.8-0.2,3.5-2.3,2.2-4c-3-4-3.3-8.4-3.5-13.1c0-1.4-0.3-2.7,1.5-2.7
		c1.9-0.1,1,1.5,1.1,2.3c0.2,4.5,1.5,8.2,6.2,10c2.7,1.1,4.1,3.4,5.3,6c-0.9,0.3-1.7-0.5-2.4,0.5c2.2,1.7,4.7,2.9,7.2,4.1
		c1.6,0.8,3.1,0.6,4.5-0.3c9.6-6.3,19.3-12.4,28.9-18.9c4.5-3,8.8-6.1,14.4-6.5c0.7-0.1,1.4-0.2,1.4-1c0-0.8-0.9-0.8-1.5-0.8
		c-2.9-0.2-5.5,0.5-8.1,1.6c-1,0.4-1.9,0.9-2.9-0.2c-3.9-4.4-9-7.4-13.5-11c-2.2-1.8-4.2-3.7-3-7c0.4-1.1,0.1-2.4,0.1-3.5
		c0-0.7-0.3-1.4-1-1.5c-0.9,0-1.2,0.7-1.2,1.5c-0.8,8.5-0.9,16.9,1.7,25.1c1.5,4.9,0.2,8.7-4,11.8c-3.9,2.8-8,5.4-12.1,7.9
		c-2.6,1.6-4.8,0.9-6.1-1.9c-1.5-3.1-3.3-6.1-6.7-7.6c-2.8-1.2-4.3-3.5-4.8-6.4c-0.3-1.5-0.5-3-0.7-4.5c-0.3-2.1-1.5-2.7-3.5-1.9
		c-2.5,1-3.2,2.9-3.5,5.5c-0.7,5.3,3.2,9.4,3.2,14.6c-4.5-0.1-8.9,0.8-13,2.9c-5,2.7-5.9,9.1-1.7,12.6c0.8,0.7,0.7,1.1,0.5,2
		c-0.7,3.3-1.7,6.9,2,9.3c0.9,0.6,0.5,1.2,0.2,1.9c-1.7,5.2,2.6,10.2,7.6,10.1c6.6-0.2,13.1-0.2,19.2-3.3c1.9-1,3.8-1.9,5.8-2.6
		c8-2.8,9-4.2,9.4-12.4c0-1,0-1.9,1.1-2.4c3.6-1.7,7.3-3.5,11-5.3c1.3,6.8,1.8,13.3,2.4,19.8c1.1,12.8,3.3,25.6,3.6,38.5
		c0.3,13.8,0.3,27.6,0,41.4c-0.2,9.7-0.5,19.3-1.1,29c-0.5,8.2-1.4,16.3-2.2,24.5c-1.3,13.2-3.6,26.2-6,39.2c-0.2,1.2-2.3,5.5,2.6,3
		c0.2-0.1,0.7,0.3,1.1,0.5c8.4,2.8,16.9,5.5,25.3,8.4c2.8,1,6.3,0.8,7.9,4.5c-2.3,0.1-4.1,1.1-6.1,1.6c-6.2,1.6-12.4,1.1-18.6,1.6
		c-8.8,0.7-17.5-0.3-26.1-1.7c-5.1-0.8-5.5-1.4-5.7-6.3c-0.7-17.2,0.4-34.3-0.9-51.5c-0.8-10.2-0.9-20.5-1.9-30.7
		c-0.6-6.2-1.4-12.4-2-18.6c-0.7-7.1-2.1-13.9-4.4-20.6c2.3-0.9,5-0.5,7.5-2.1c-0.8-0.4-1.4-0.9-2-0.9c-6.5-0.3-12.9-0.5-19.4,0.2
		c-0.8,0.1-2.2-0.1-2.2,1.3c0,1.2,0.7,2.1,1.8,2.3c1.1,0.2,1.4,0.5,1,1.7c-2.6,7.9-3.1,16.1-3,24.2c0.2,14.3-1.1,28.4-1.3,42.7
		c-0.3,17.4-0.1,34.7,3.2,51.9c0.7,3.8-0.4,6-4.4,7.2c-6,1.7-12,3.8-18.1,4.2c-11.2,0.7-22.4,0.7-33.4-2.3c-1.5-0.4-3.4-0.3-3.6-2
		c-0.2-1.5,1.5-2.5,2.7-3.3c0.6-0.4,1.3-0.7,2-1c8-2.9,16-5.9,24.4-7.9c1.3-0.3,11.6-2.7,12.7-3.6c0,0,0.1-1.3,0-1.8
		c0.1,0.1,0.3-0.1,0-0.2c-1.3-0.6-12.8,3-14,3.4c-7.2,2.4-14.3,4.9-21.5,7.5c-1.8,0.6-3.7,1.3-5.3,2.3c-2.1,1.3-4.2,5.1-1.9,6.6
		c3.6,2.2,7.3,3.8,11.6,4c6.9,0.4,13.8,0.7,20.6,1.1c10.2,0.5,19.5-2.3,28.7-6.3c1.9-0.9,2.5-2.4,2.5-4.4c0-2.5-1.3-4.8-1.3-7.3
		c-0.3-9.8-0.8-19.6-1.4-29.4c-0.5-8.8,0-17.6,0.5-26.5c0.8-12.5,0.1-25,1.5-37.5c0.8-7.1,0.3-14.2,1.7-21.2c0.6-2.6,2.2-3,4.1-3.1
		c1.3,0,3-1.1,3.8,1.2c2.4,7.4,4.3,15,4.9,22.6c0.7,9.9,2,19.8,2.4,29.8c1,22.7,1.6,45.5,1.8,68.3c0,5.8,1.2,7.5,6.9,8.7
		c11.3,2.3,22.8,3.3,34.3,2.7c6.2-0.3,12.1-1.9,18-3.7c3.6-1.1,4.1-3.7,1.2-6.2c-1.6-1.4-3.6-2.3-5.6-3.1
		c-8.9-3.5-18.2-5.8-27.3-8.6c-1.9-0.6-2.4-1.4-2.1-3.2c1.9-11.8,3.2-23.6,5-35.4c2.2-14.1,2-28.3,3.2-42.4c0.8-9.4,0.2-19,0.3-28.5
		c0.1-16.1,0.5-32.2-1.6-48.1c-1.5-11.5-2.2-23.1-4.3-34.5c-0.4-2.2,0.1-3.6,2.4-4.5c3.4-1.3,6.7-2.9,10-4.4
		c7.9-3.8,16.4-6.4,23.8-11.4C671.6,361.5,673,355.2,669.4,350.6z M599.5,278.9c-8.9,2-17.8,1.7-26.7,1c-3.8-0.3-6.8-2.4-9.5-5
		c-5.4-5.1-11.2-9.9-12.9-17.6c-1-4.6-1.3-9.3-1.1-14.1c0.5-8.8,0-17.7,0.8-26.5c0.3-3.2-1-6-2.9-8.6c-3.4-4.5-4.9-10-5.2-15.3
		c-0.5-7.8,0.2-15.7,3.7-23c0.8-1.7,1.8-3.3,3.5-5.1c-0.7,6-0.7,11.3,1.3,16.4c0.9,2.3,2.5,3.9,4.4,5.4c0.4,0.3,0.8,0.7,1.4,0.5
		c0.6-0.3,0.5-0.9,0.4-1.4c-0.2-1.6-0.5-3.2-0.7-4.8c-1.3-10.1,2.2-19,7.1-27.5c1.1-1.9,2.4-3.7,3.8-5.8c1,0.9,0.5,2,0.5,3
		c-0.1,5.9,0.2,11.8,1.3,17.7c1.5,8,7.3,13.5,15.3,15c4.3,0.8,8.7,1,12.7-0.5c6.3-2.4,9.5-7.8,11.7-13.7c2.4-6.8,3.2-13.8,2.7-21
		c-0.1-1.2,0-2.5,0-4.6c5.5,5.9,9.6,11.7,11.9,18.6c2.6,8,3.4,16.1,0.9,24.4c-0.3,0.9-1.6,2.3-0.1,3.1c1.2,0.7,2.1-0.6,3.1-1.2
		c3.9-2.5,5.6-6.5,6.9-10.8c0.1-0.5,0.1-1-0.4-1.4c1.6-0.4,1.3,0.8,1.4,1.7c1.5,11.9-2.7,22.3-8.5,32.2c-1.9-0.5-1.1-2.7-2.9-3.3
		c-0.9,4.9,0.1,9.4,1.1,14c2.3,10.9,2.2,21.9,0.3,32.7C622.9,264.8,610.7,276.4,599.5,278.9z M623.5,337.7c5,5.3,11.5,8.6,16.6,14.1
		c-2.2,1.4-4.3,2.8-6.4,4.2c-0.1,0.1-0.2,0.2-0.4,0.2c-0.2,0.2-0.4,0.3-0.7,0.4c-1.8,1.2-3.7,2.3-5.8,3.3
		C624.6,352.7,624.7,345.2,623.5,337.7z"/>
	<path class="st3" d="M501.1,365.8c-0.7-1.6-2.3-0.9-3.5-0.9c-6.5,0-12.9,0.4-19.3-1c-4.4-0.9-9.1-2.6-13.6,0.1
		c-5.3,3.3-10.9,4.1-17.2,3.9c-23.2-0.6-46.3,0.2-69.4,2.9c-6.9,0.8-13.7,2.8-20.8,2.8c-5.9,0-11.8,0.4-17.2,3.3
		c-0.6,0.3-1.2,0.4-1.8,0.6c-0.8,0.3-1.5,0.4-1.5-0.8c-0.2-3.2-1.7-6-2.4-9c-0.3-1.2-0.5-2.4,0.9-3.1c4.2-2.2,8.2-4.8,13.1-5.3
		c10.6-1,21.2-1.5,31.8-2.9c8.4-1.1,16.7-3,25-4.7c8.5-1.8,16.8-3.2,23.6,4.6c2.2,2.6,6,1.7,7.4-1.4c0.6-1.3,1.5-1,2.3-1.3
		c5.1-1.8,5.6-2.5,5.3-7c-0.3-4.1,0.1-4.2,4.2-4.8c3.5-0.5,7.1,0.7,10.5-0.5c2.3-0.8,5.3-4.4,4.6-6c-1.2-2.5-3.7-1.3-5.5-1.1
		c-6.9,0.9-13.5-0.3-20.2-1.4c-4.4-0.7-8.6-0.7-12.5,1.5c-3.2,1.8-6.7,2.6-10.1,2.8c-9.3,0.6-18.7,0.9-28.1,1.6
		c-9,0.6-18,1.5-27,2.6c-5.2,0.6-10,2.7-15.2,2.9c-4.4,0.2-8.5,1-12.6,2.6c-1.6,0.6-2.7,0.9-3-1.5c-0.2-2.2-1-4.3-1.6-6.5
		c7.2-1.6,13.8-4.1,18.2-10.3c5.8-8.3,9.4-17.4,10.3-27.6c0.8-7.9,0.7-15.7-0.1-23.6c-1-10.1-0.8-20.3-4.7-30.2
		c-2.7-7-6.7-10.8-13.5-12.2c-1.7-0.4-2.1-0.9-2-2.5c0-2.8-0.7-5.4-3.2-7c-1.1-0.7-1.2-1.7-1.1-2.8c0.1-3.1-1.5-5.3-4.2-6.2
		c-3.4-1.1-2.4-3.5-2-5.5c0.3-1.6,1.3-3.2,2.4-4.5c5-6,12.5-10,20.3-2.8c2.1,2,3.6,4.5,4.8,7.2c2.6,6.3,2.8,13,3.2,19.7
		c0.6,9.2,3.2,17.5,10,24.2c3.9,3.8,7.7,7.9,11.5,11.9c3.9,4.2,5.8,9.3,5.8,15c0,1.2,0,2.4,0,3.6c0.3,0,0.6,0,0.9,0
		c3.7-5.8,4-12.1,1.9-18.7c-2.1-6.5-6.3-11.8-10.4-17c-4.8-6.1-8.6-12.6-9.6-20.4c-0.6-4.9-0.7-9.9-1.4-14.8
		c-1.2-8.3-4.7-15.2-10.9-20.6c-10.3-8.9-23.5-6.7-29.6,3.4c-0.4,0.6-0.7,1.5-1.6,1.4c-1.2-0.2-0.9-1.3-1-2.1
		c-0.1-4.1,0.4-8.2,0.9-12.2c1.4-10,3.7-19.6,11.8-26.5c8.2-6.9,16.8-7.1,23.5,1.1c3.5,4.3,5.2,9.4,5.5,14.9
		c0.2,4.5-0.1,9.1,0.1,13.6c0.4,11.6,5,19.1,18.3,17.6c7.7-0.9,14.8,0.5,20.7,5.8c0.2,0.2,0.5,0.1,1,0.3c-0.4-1.8-1.3-3.1-2.3-4.4
		c-4.2-5.3-9.9-7.4-16.3-8c-6.6-0.7-10.6-3.9-11.2-9.2c-0.4-3.7-0.7-7.5-0.3-11.3c0.8-7.1-0.2-14-3.4-20.5
		c-4.9-9.9-12.1-17.3-23.6-18.3c-12.6-1.1-21.1,5.9-27.2,16c-4.3,7-5.8,14.8-5.7,22.9c0,5.6-0.3,11.1-0.2,16.7
		c-0.1-0.6-0.2-1.2-0.3-1.8c-0.4-3.3-1-6.5-1.8-9.7c-0.1-0.4-0.2-0.8-0.3-1.3c0-0.1-0.1-0.2-0.1-0.4c-0.5-1.6-1-3.2-1.5-4.8
		c-0.1-0.2-0.2-0.3-0.3-0.3c-4-9.5-11-16.2-22.1-17.8c-16.4-2.3-30.1,3.6-40.4,16.7c-5.5,7-8.5,15.3-10.1,24.2
		c-0.4,2.5-0.8,5.1-1,7.6c0,0.2,0.1,0.4,0.1,0.7c0.6,8.2,1.3,16.5,1.3,24.8c0,1.3,0,2.6-0.1,4c0.6,4.9,1.1,9.9,1.1,14.8
		c0.7,0.2,1.5,0.4,2.3,0.5c0.1-1.6,0.1-3.2,0-4.9c-0.7-9.6-2.3-19.1-2.6-28.7c-0.3-10.3,0.3-20.5,4.2-30.3
		c7.1-17.9,22.3-28.2,41-27.7c9.1,0.2,16.3,4.1,21.4,11.8c2.5,3.8,4.1,7.9,5.1,12.3c0.3,2.7,0.6,5.5,1.1,8.2c0,0.1,0.1,0.2,0.1,0.2
		c0.8,6,0.4,11.9-0.2,17.9c-0.2,1.4,0.5,3.5-2,3.3c-2.1-0.2-0.9-2.1-1-3.1c-0.4-6.8-1.5-13.4-4.1-19.6c-0.3,0.5-0.7,0.9-1.1,1.2
		c0.3,0.9,0.6,1.8,0.9,2.7c1.4,5.4,2.9,10.8,2.1,16.7c-1-0.5-1.2-1.2-1.5-1.9c-4.2-10.6-15.5-18-26.7-16.4
		c-16,2.2-25.6,11.6-26.2,28.6c-0.3,7.2,0.9,14.2,2.1,21.2c1.3,8.1,2,16.3-1.3,24.2c-1.7,4.3-3.5,8.5-5,12.9c-2,5.9-1.4,11.4,3,16.2
		c2.5,2.8,2.4,2.9-1.1,5.2c-0.5-1.2-0.9-2.4-1.5-3.4c-1.5-2.9-2.7-3-5.2-0.9c-1.2,1-2,2.5-4.2,1.6c-1.5-0.6-8.5,4.8-8.7,6.4
		c-1.2,8.4-2.4,16.9,6.4,23c0.7,0.5,1.2,1,1.3,2c2.6,13.9,6.7,27.3,12.5,40.2c1.9,4.3,3.7,5.3,8.3,4.6c9.8-1.6,19-5,27.9-9.3
		c4.9-2.4,5.2-2.4,6.1,2.8c0,0,0,0,0,0c-0.2,0.9-0.5,1.7-0.8,2.6c0,0-0.1,0-0.2,0c-0.7-0.1-0.9,0.6-1,1c-0.4,1.4-0.8,2.9-1,4.4
		c-0.1,1.1-0.5,1.4-1.6,1.4c-11.8,0.2-23.7-0.3-35.5,1.1c-6.8,0.8-13.8,0.3-20.7,0.3c-8.6,0.1-8.7,0.1-10.6-8.2
		c-2.3-9.9-3.7-19.8-4.3-30c-0.5-8.3-1.6-16.5-2.3-24.8c-0.4-4.7-1.7-9.8,3.9-12.8c1.3-0.7,1.7-2.4,1.7-4c0-1.8,1-2.2,2.5-2.2
		c1,0,1.9,0.1,2.9,0.1c2.6,0,3.4-1.2,2.7-3.7c-1-3.7-4.5-5.4-9.5-4.2c-2.2,0.5-2.6,0-2.3-2c0.6-3.9-1.9-6.5-4.3-8.8
		c-1.6-1.5-3.8-1.4-5.3,0.7c-0.5,0.7-0.8,1.5-2,1.1c-2.9-1.1-4.5,0.9-6,2.9c-0.5,0.7-0.8,1.6-2.1,1.6c-2.1-0.1-3,1.4-3.5,3.2
		c-1.4,5.8-1.1,11.2,3.7,15.4c1.9,1.7,2.5,3.7,2.6,6.3c0.1,10.6-0.9,21.2,0,31.7c0.5,6.8,1.2,13.5,2.1,20.2c1.2,9.9,2.6,19.7,7,29
		c1.9,3.9,4.1,5.2,8.1,5.1c18.2-0.2,36.5-0.1,54.7-0.1c2.7,0,5.4,0.1,8,0.9c3.4,1,4,2.2,3.2,5.7c-1,4.6-2.5,9.1-2.9,13.9
		c-0.6,7.7-1.1,15.5-1.9,23.2c-1.2,10.8-1.9,21.6-2.3,32.5c-0.6,16.2,0.1,32.3,2.5,48.4c1.1,7.4,2.2,14.9,3.5,22.3
		c2.1,12.4,6.4,24.3,10.1,36.3c0.8,2.7,0.4,4.2-2.4,5.1c-4.5,1.5-9.3,1.5-13.9,1.7c-2.5,0.1-3.7-1.4-3.8-3.9c-0.1-2.3,0.3-4.6,1-7.7
		c-4,2.9-6.6,6.1-7.6,10.1c-2.3,8.8-1.6,12.1,3.3,15.7c4.1,3,8.7,3.8,13.7,3.6c7.5-0.2,14.7-2.1,21.9-3.9c8.4-2.2,9.1-3.1,7.5-11.6
		c0-0.2,0-0.4-0.1-0.6c-2-9.1-2.4-18.4-3-27.5c-0.7-9.8-0.4-19.8,0.3-29.7c0.8-11.8,2.8-23.5,3.3-35.4c0.1-1.5,0.6-2.3,2.1-2.1
		c1.2,0.2,2.5-0.7,3.3,1.4c2.9,7.5,4.6,15.4,4.7,23.3c0.3,15.1,1.8,30.1,2.1,45.2c0.2,9.4,0.4,18.8-0.4,28.2c-0.3,3.4,1.3,5,4.2,6.3
		c3.9,1.7,8,2.6,12.1,3.4c6,1.3,12,3.1,18.3,0.6c5.8-2.3,9.6-5.8,10.1-10.9c0.5-5.9-3.9-14.9-8.5-17.2c1.6,9.2-5.8,12.7-12.5,10
		c-1.6-0.6-3.3-1.1-5-1.4c-2.7-0.6-3.3-1.9-2.5-4.6c3-9.8,6.1-19.7,8.8-29.7c3.1-11.4,3.3-23.2,4-34.9c1.2-22.5,1.1-45-1.6-67.5
		c-1.8-15.2-4.8-30.2-7.4-45.3c-0.9-5.3-1-5.2,4.1-6.5c14.8-3.8,29.7-5.9,45-6.3c3.8-0.1,7.9,0,11.5-0.9c7.4-2,14.9-1.8,22.4-2.5
		c8.4-0.8,16.8-1,25-2.7c4.7-1,9.4-1.3,13.6,1.8c1.4,1.1,2.8,2.3,4.2,3.5c2,1.7,5.4,1.7,6.3-0.2c0.9-1.9,2.3-2.6,4.1-3.1
		c3.5-1,4.9-3.3,4.2-6.8c-0.6-2.8,0.9-3.9,3.3-4.4c3.1-0.8,6.2-0.5,9.3-0.4c2.4,0.1,4.2-0.7,5.5-2.7
		C500.6,368.2,501.6,367.1,501.1,365.8z M331.5,192c7.7-3.4,16.4-1.4,22.6,5.2c5.8,6.2,8,13.8,8.5,22c0.3,4.8,0.8,9.7,1.6,14.4
		c1.1,6,4.2,10.9,7.8,15.7c2.7,3.6,5.4,7.3,7.9,11c3.4,5.2,5.1,10.9,4.5,17.1c-0.9-8.3-6.1-14.1-12-18.9
		c-10.4-8.4-14.5-19.4-14.7-32.3c-0.1-5.9-1.4-11.7-3.8-17.2c-0.3-0.6-0.5-1.2-0.8-1.7c-3.4-5.2-7.4-10-14.3-9.4
		c-7.5,0.7-12.4,5.3-14.9,12.4c-0.4,1.1-0.6,2.3-1,3.4c-0.2,0.5-0.1,1.8-1.4,1.2c-0.7-0.3-1.3-0.5-1.3-1.6
		C319.9,205.9,324.9,194.9,331.5,192z M314.6,177.7c0.3-4.1,0.4-8.2,1.6-12.1c2.8-9.8,8.5-17.4,17.8-21.4
		c11.4-4.9,23.6-0.6,30.4,9.9c3.5,5.4,5.1,11.3,5.3,17.7c0.2,5.2-0.5,10.4,0.5,15.5c1.6,9,4.5,12,13.4,13.8c1.5,0.3,2.9,0.6,4.4,0.9
		c0,0.2,0,0.4,0,0.6c-3.2,0-6.5,0-9.7,0c-7.8,0.1-11.8-3.3-12.7-11.2c-0.3-2.5-0.3-5-0.2-7.4c0.4-6.5-0.2-12.9-2.3-19.1
		c-1.6-4.5-4-8.4-7.9-11.2c-5.1-3.7-10.6-4.5-16.4-1.7c-10.3,5-15,14-17.6,24.5c-2.6,11-1.7,22.3-2.6,33.4c-0.1,0.9,0,1.7-0.1,2.6
		c0,0.8-0.2,1.5-1.3,1.4c-0.9-0.1-1.6-0.3-1.7-1.5C315.1,201,313.8,189.4,314.6,177.7z M311.9,212.2c0.3-3.4,0.8-6.9,0.9-10.3
		c0-0.2,0-0.4,0-0.6c0.1,0.9,0.2,1.7,0.3,2.6c0.4,2.8,0.1,5.6,0.2,8.4c0,0.9-0.1,1.7-1.1,1.4C311.4,213.6,311.9,212.8,311.9,212.2z
		 M248.9,294c-0.1-0.5-0.2-0.9-0.3-1.4C249.7,292.7,249,293.5,248.9,294z M248.6,292.4c-2.2-4-1.7-8.1-0.3-12.2
		c2-6,4.8-11.6,6.3-17.8c1.6-6.7,0.7-13.3-0.3-19.9c-1.6-9.7-3-19.3-0.3-29.1c3.3-12,17.5-20.2,29.7-17.2
		c7.8,1.9,13.6,6.1,17.3,13.2c0.4,0.9,1,1.6,1,2.7c0,1.2,2.1,2.6-0.1,3.4c-1.7,0.6-3.5,1.3-5-1.2c-2.9-4.7-7.3-8.2-12.5-10.1
		c-6.9-2.5-17,3.4-20.2,11.3c-2.6,6.4-1.1,12.7,0.4,18.9c2.1,8.3,3.2,16.6,0.4,25.1c-1.6,4.7-5,7.8-8.2,11
		C250.6,276.9,247.2,283.7,248.6,292.4z M291.5,224.3c0.1,0.7,0.1,1.6-0.7,2c-2.9,1.6-3.4,4.3-3.2,7.2c0.1,1.7-0.5,2.2-2.2,2.8
		c-6.7,2.3-12.9,5.5-16.5,12.3c0.1-5.7-1.6-11.3-2.8-16.9c-1.4-6.2-2.4-12.4,1.5-18.1c4.6-6.7,10.9-8.9,18.6-6.2
		c3.7,1.3,6.8,4.7,9,8.5c0.4,0.7,0.7,1.6-0.6,2.3C292.2,219.4,291.2,221.6,291.5,224.3z M242.7,298.4c2-1,1.6,1.2,2.2,2.2
		c1.5,2.9-0.4,5.1-1.3,7.9c-1.3-2.3-2.7-3.9-3.4-5.9C239.4,300.6,241.2,299.1,242.7,298.4z M235,302.5c0.8-2,2.6-1.8,3.2-0.5
		c1.8,3.9,5.1,7.3,3.8,12.1c-0.1,0.3-0.3,0.6-0.7,1.2c-2-3.8-4.4-7.1-8.1-9.1C233.8,304.9,234.5,303.7,235,302.5z M229.3,308.1
		c0.3-2.1,2-2.2,3.8-1.9c0.5,2.5,2.3,4.3,4,6c2.1,2.1,1.6,4.1,0.1,5.6c-1.9,1.9-3-0.6-4.8-1.5c1.6-0.5,3-0.3,3.9-1.9
		c-1.8-0.5-3.6-1-5.2-1.8C228.5,311.3,229.1,309.7,229.3,308.1z M494.3,370.2c-5.9-0.7-11.2,1.7-16.8,2.3c-0.8,0.1-2,0.2-2.3,1.4
		c1.1,0.4,2.1,0,3.2-0.1c0.5,0,1.3-0.3,1.4,0.4c0.1,2.2,0.7,5-0.3,6.6c-0.9,1.4-3.6,2.1-5.9,1.8c-0.9-0.1-1.5-0.9-1.7-1.7
		c-0.1-0.3,0.3-0.8,0.6-1c0.7-0.4,1.4-0.2,2.1,0.3c0.6,0.5,1.2,1.2,2.5,1c-1.9-2.3,1.7-3.4,1-5.6c-1.8,0.3-3.4,2.7-4.7,1.5
		c-1.8-1.6-2,0-2.5,0.7c-1.7,2-0.8,4,0.5,5.8c0.5,0.7,1.4,1.3,0.6,2.2c-0.8,0.9-1.7,0.6-2.7,0.3c-1.2-0.4-1.9-1.4-2.8-2.2
		c-3.3-3.1-7.1-4.7-11.7-4.4c-5,0.3-10.1,0.3-15.2,0.7c-5.7,0.4-11.4,1.2-17,1.7c-9.7,0.8-19.2,3.7-28.9,3.2
		c-16.8-0.9-32.8,3.5-48.9,7.2c-0.3,0.1-0.6,0-0.9,0c-0.1-0.8,0.9-1.6,0-2.4c-4.4,3-5.6,5.5-4.8,10.8c1.9,12.2,3.8,24.4,6.1,36.5
		c3.5,18.9,1.7,38.1,3.4,57.1c0.8,8.8-0.6,17.9-1.2,26.8c-0.4,5.5-0.6,11-1.7,16.4c-3,13.7-5.3,27.6-9.7,41c-0.8,2.3-0.3,3.5,2,4.8
		c3.4,1.9,7,2.6,10.6,3.7c3.4,1,7-0.1,9.2-2.8c1.4-1.7,2-3.8,2.6-6c4.9,4.8,5.3,14.1,0.9,18.4c-4.8,4.8-11.1,4.5-16.9,4.2
		c-5.7-0.2-11.3-2.3-16.8-4.2c-2.9-1-4.4-2.5-4-5.9c0.9-7.8,0.8-15.7,0.8-23.5c-0.1-18.2-1.1-36.4-2.8-54.5
		c-0.5-5.9-0.5-12.1-3.3-17.6c-0.9-1.8,0.6-1.7,1.5-2c1.5-0.5,3.4,0.1,4.4-1.7H298c2.5,2.2,4.9,2.8,7.6,2.7c1.4,0,2.3,0.2,1.9,1.9
		c-1.1,4.9-0.9,9.8-1.5,14.7c-1.1,9.2-2.3,18.4-2.4,27.7c-0.3,18.4-0.1,36.8,3.8,55c0.5,2.4-0.2,3.9-3.1,4.6
		c-5.4,1.3-10.9,2.1-16.4,3.2c-4.9,1-9.7,1.5-14.7,0.6c-5-0.9-9.1-3.8-9.7-8.1c-0.5-4,0.4-7.8,3.1-11.5c0.9,2.6,1,4.9,4,6
		c7.2,2.7,13.5,0.6,19.7-2.6c2.1-1.1,2.6-2.4,1.8-4.7c-1.7-5.3-3.2-10.7-4.6-16.1c-3.5-13.5-6.1-27.3-8.2-41.1
		c-1.7-11.7-3.3-23.5-3.5-35.3c-0.3-13.6,0.9-27.1,1.8-40.7c1-15,2.1-30,4.9-44.8c0.4-2.3-0.1-4.1-1.2-6.1c-1.3-2.5-3-2-5.3-2.1
		c-9.9-0.4-19.9,0.3-29.8-0.4c-10.7-0.7-21.3-0.5-32,1c-2.4,0.3-3.6-0.8-4.5-2.7c-1.7-3.7-3.2-7.6-4-11.6
		c-4.4-21.8-6.6-43.8-6.5-66.1c0-5.2-0.1-10.1-4.5-13.7c-2.8-2.8-4.1-11.7-1.1-13.2c2.5-1.3,4-3.2,5.9-4.8c0.3-0.3,1.1-0.3,1.6-0.1
		c2.2,0.8,3.8,0.4,4.9-1.9c0.5-0.9,1.7-1.6,2.8-1c2.1,1.1,3.7,2.7,4,5.1c0.3,2.6-0.3,5.1-1.6,7.5c-0.5,0.9-1,1.7-2.2,1.4
		c-1.3-0.3-0.9-1.4-0.8-2.1c0.2-2.7-1-4.6-3-6.3c1,3,2,5.9,1,9c-0.3,0.9-0.3,2.1-1.6,2.1c-1.2,0-1-1.3-1.1-2c-0.4-3.5-3-5.2-5.4-7.4
		c-0.8,2,0.9,2.7,1.7,3.6c1.7,1.7,2.7,6.2,1.7,8.2c-1.1,2.2-2.6,2-5.1-0.6c0.5-0.9,1.9-0.1,2.5-1.4c-1.9-0.8-4.3-1.1-5.2-3.5
		c0.8,2.3,0,4.8,1.9,6.6c1.5,0.8,2.6,2.3,4.6,2c1.8-0.3,2.5-2.1,3.8-3c0.8,1.2-0.4,3,1.5,3.9c0.1-1,0-1.8,0.3-2.4
		c1.1-2.5,1-6.2,5.5-5.3c2,0.4,3.6-0.7,5-2.3c1.8-2,4.3-1.8,6.6-0.7c0.8,0.4,1.7,1.3,1.5,2.3c-0.3,1.4-1.5,0.9-2.4,0.8
		c-3.1-0.3-5.1,0.8-5.5,4c-0.2,1.6-1.3,2.4-2.5,3.1c-3,1.6-3.5,4.2-3.7,7.2c-0.4,7.7,0.9,15.2,0.9,22.9c0,6.1,0.7,12.3,1.7,18.3
		c1.6,9.2,2.7,18.5,6.2,27.3c0.3,0.8,1.1,1.9-0.2,2.6c-2.1,1.1-2.8,2.5-1.7,4.5c0.3-0.3,0.9-0.8,1.2-1.5c1.2-3,3.4-3.2,6.3-2.8
		c2.2,0.4,4.4,1,6.7,0.9c15.7-1.3,31.5-1.5,47.3-1.9c3.1-0.1,6.5-0.3,9.4,2c0.6-2.4,1.2-4.6,1.7-6.9c0.4-1.1,0.9-2.3,1.4-3.4
		c0.9-2.2,1.8-4.6,1.1-6.9c0-0.1-0.1-0.1-0.1-0.2c-0.2-0.6-0.5-1.3-0.9-1.9c0-0.1-0.1-0.1-0.2-0.1c-0.6-1.2-1-3.7-2.5,0
		c-0.2,0.6-0.9,0.5-1.4,0.5c-1.7-0.1-3.1,0.7-4.6,1.3c-7,2.8-14,5.5-21.1,8.1c-5.9,2.2-8.7,1.3-10.9-3.1c-5.1-10.1-8.1-21-11.2-31.8
		c-1.1-3.9-1.1-8.6-4.9-11.2c-3.8-2.6-4.4-6.3-4.4-10.7c2.8,2.5,4.9,6.1,9,2.8c1,1.6-0.6,4.1,2.1,5c0.7-2.1-1.5-4.8-0.2-5.7
		c2.9-2,2.4-5.2,3.5-7.7c1.2,0.1,1,1.9,2.5,1.4c0.1-1.1,0.3-2.3,0.1-3.4c-0.3-3.1,4.1-6.6,6.8-6.6c0.9,0,1.8,0,2.3,0.9
		c0.5,1.1-0.4,1.6-1.1,2.1c-2,1.3-4.1,2.9-4.5,5.3c-0.7,3.5-1.1,7-2.5,10.4c2.9-0.9,3.4-3.5,3.7-5.9c0.6-4.1,2-7.3,5.7-9.6
		c2.1-1.3,1.8-3.8-0.7-4.3c-5.8-1.4-5.6-6-6.2-10.2c-0.3-2.5,0-5.2-0.1-7.8c0-0.9,0.4-1.5,0.9-2.2c4.2-6.8,10.8-11.8,14.8-19.3
		c0.7,2.3,0.7,4.2,0.4,6c-1.6,11.9-0.3,23.7,0.8,35.5c0.7,7.4,3.7,14.5,7.7,21c1.1,1.7,2.3,3.4,3.3,5.2c3.2,5.7,8.5,8,14.4,9.5
		c2.5,0.6,3.3,1.8,3.2,4.1c1.5-2.5,3.8-2.7,6.4-2.1c1.3,0.3,2.7,0.2,3.9-1c-1.6-0.3-3.1-0.8-4.6-0.8c-12.8-0.3-23.1-10.6-27.3-21
		c-3.5-8.7-5.2-17.8-5.4-27c-0.2-8.6-1.1-17.2,0.3-25.8c0.8-5.1,2-10.1,2.5-15.2c0.2-2.8,1.4-4.7,3.6-6c6.3-3.8,13.1-5.9,20.3-6.6
		c13.9-1.3,27.8-1.3,41.6,0.6c7,1,10.6,4.1,12.2,10.3c2.7,10.7,4.2,21.7,4,32.9c-0.1,5.8-0.3,11.7-0.5,17.5
		c-0.5,11.5-3.4,22.2-10.9,31.3c-1,1.2-2.1,2.1-3.4,2.9c-6.5,3.8-14,4.4-21,6.5c0.4,0.8,1.1,0.7,1.7,0.7c1.8,0,4-0.7,5.4,0
		c1.6,0.9,0.9,3.5,1.5,5.3c1.7,5.1,1.6,5.1,6.5,3.3c7.3-2.7,15.1-3.1,22.7-4.2c15.1-2.2,30.1-4.1,45.3-4.5c9-0.2,18-0.5,26.5-4.4
		c2.1-1,4.5-1.9,7.2-1.2c7.8,1.9,15.7,2.6,23.6,2c0.9-0.1,2.6-0.8,2.7,0.7c0.1,1.3-0.8,2.7-2.3,3.2c-0.7,0.2-1.5,0.1-2.2,0
		c-5.7-1-10.9,1.5-16.4,2c-1.1,0.1-2.4,0.4-3.2,1.9c1.4-0.2,2.5-0.3,3.6-0.4c0.5-0.1,1.3-0.2,1.3,0.5c0.1,2.1,0.7,4.7-0.3,6.3
		c-1,1.6-3.6,2-5.8,2c-1.1,0-1.5-0.8-1.8-1.6c-0.1-0.3,0.1-0.9,0.4-1.1c0.8-0.7,1.6-0.3,2.3,0.3c0.6,0.5,1.2,1,2.6,0.8
		c-2.6-2.3,1.8-3.2,0.7-5.4c-1.7,0.2-3.2,2.5-4.4,1.6c-2.3-1.6-2.4,0.4-3.2,1.3c-1.6,2.1,0.1,3.6,1,5.2c0.3,0.6,1.2,1.1,0.6,1.9
		c-0.6,0.8-1.5,0.8-2.3,0.6c-1.6-0.3-2.5-1.5-3.6-2.5c-3.1-2.9-6.7-5.3-11-5.3c-3.9,0-7.9,0.8-11.7,1.9c-16.5,4.9-33.6,4.6-50.4,6.6
		c-5.8,0.7-11.1,3.4-17.2,3.3c-1.6,0-4.2,3.3-4.5,6.4c-0.3,4,0.9,7.9,1.3,11.9c0.3,2.8,1.3,3.6,3.7,2c6.5-4.4,13.9-3.9,21.1-4.6
		c9.4-0.9,18.9-1.1,28.2-3.1c3.3-0.7,6.5-1.7,9.8-1.8c12.1-0.4,24.1-0.5,36.2-0.7c4.7-0.1,9.5,0,14.2-0.2c5.3-0.2,10.4-0.7,15.3-3
		c3-1.4,6.3-2.5,9.7-2c5.8,0.9,11.6,2,17.5,2.1c3.1,0,6.1-0.6,9.3-0.1C498,370.3,497.9,370.7,494.3,370.2z"/>
	<path class="st3" d="M288.6,297.4c-1.2,0.9-2,1.5-2.8,2.1c0.3-2.9,2.4-4.7,5-4.4c1.6,0.2,1.8,0.6,0.7,2c-0.7,1,0.1,1.1,0.7,1.4
		c2.9,1.4,6,2.5,9.2,2.9c9.1,1,18.3,1.6,26.5-3.8c2.1-1.4,2.1-1.3,1.3-3.5c-0.2-0.5,0.1-0.8,0.5-1c1.6-0.7,3.2-0.6,4.7,0.2
		c1.3,0.7,2.4,1.6,1.4,3.6c-0.7-0.7-1.4-2.1-2.6-1.4c-0.9,0.5-0.4,1.8-0.4,2.7c0.8,12.6-12.3,23.2-22,23.1
		c-10.2-0.2-21.3-10.9-22.2-21.6C288.8,299,288.7,298.5,288.6,297.4z M300.3,314.9c8,5.2,14.2,5.7,19.8,1.4c0.9-0.7,3.1-1,2.4-2.8
		c-0.7-1.9-2.3-3.2-4.4-3.3c-1.5-0.1-3,0.2-4.4,0.7c-1.1,0.3-2,0.6-3.1,0.3C305.5,309.8,303.5,310.5,300.3,314.9z"/>
	<path class="st3" d="M343.3,258.5c-0.5,2.8-2.8,2.7-3.9,4c1.5,1,2.7-0.6,4.3,0c-1.1,2.4-3.5,1.9-5.5,2.5c2,2.6,4-0.4,5.9,0.2
		c-0.2,0.3-0.3,0.7-0.5,0.8c-4.6,0.8-3.5,3.9-3.1,6.9c0.5,3.9-0.2,7.5-3,10.8c-4.4,5-11.8,3.2-14.5-0.6c-4.2-5.8-6.1-12.6-3.7-19.8
		c2-6.1,7.4-8.5,12.6-4.8C335.9,261.2,339.2,261.2,343.3,258.5z M331.9,284.6c4.5-0.9,7.9-6.1,7.4-11c-0.5-4.8-2.6-9.1-6-12.5
		c-3.7-3.8-10-2.6-12.1,2.3c-1.8,4-1.6,8.1,0,13c-0.1-3.4,0.3-5.8,1-8.1c0.8-2.4,2.1-4.9,4.8-5c2.7-0.1,3.9,2.6,4.6,4.8
		C333.3,273.3,333.7,278.8,331.9,284.6z M331,271.3c-0.2-1.4,0.2-3.4-1.8-3.9c-1-0.3-1,1.1-1,2c0,1.7,0.1,3.5,1.9,4.1
		C331.1,273.7,331,272.2,331,271.3z"/>
	<path class="st3" d="M276.1,265c-0.3-0.9-1.6-1.1-1.4-2.5c1.6-0.1,2.5,1.2,3.6,1.8c2.4,1.3,4.5,1.6,6.4-0.9c0.7-1,1.7-1.7,3-1.3
		c-3,3.6-5,7.6-5.8,12.3c-1.2,6.5,3.2,11.3,9.7,10.5c-3.5-5.5-3.7-11.4-1.9-17.5c0.6-2.2,2.6-3.2,4.7-3.3c2-0.1,3.1,1.3,3.7,3
		c0.6,1.5,0.9,3,1.4,4.5c-0.1-2.1,0.3-4.1-0.7-6.3c-1.9-4.1-5.5-3.9-8.9-4.7c3.3-1.8,7.6-0.9,9.1,2.2c3.1,6.3,3.2,12.9,0.1,19.2
		c-2.3,4.5-6.8,6.6-10.9,5.5c-4.6-1.2-7.9-5.6-8-10.5c0-0.3,0-0.7,0-1c0.5-2.6,0.7-4.8-3-5c-1.3-0.1-2.1-1.3-2.7-2.6
		c2.3-0.2,4,2.5,6.6,0.9c-1.8-1.3-4.2-1-5.8-2.5c-0.8-0.8-1.8-1.5,0.3-1.6c0.6,0.9,1.3,1.6,2.7,0.8
		C277.6,265.8,276.9,265.4,276.1,265z M296.8,273.8c1.8-1.8,0.9-3.6,0.1-5.3c-0.2-0.3-0.6-0.7-1-0.2c-1.6,1.6-0.3,3.2,0.2,4.7
		C296.2,273.3,296.5,273.5,296.8,273.8z"/>
	<path class="st4" d="M290.1,260.8c3.3,0.8,7,0.6,8.9,4.7c1,2.2,0.6,4.1,0.7,6.3c-0.5-1.5-0.8-3.1-1.4-4.5c-0.7-1.7-1.8-3.2-3.7-3
		c-2.1,0.2-4.1,1.1-4.7,3.3c-1.8,6.1-1.6,12,1.9,17.5c-6.5,0.7-10.9-4.1-9.7-10.5c0.8-4.7,2.8-8.7,5.8-12.3
		C288.6,261.7,289.3,261.3,290.1,260.8z"/>
	<path class="st3" d="M247.6,323.4c2.5,11.1,7.6,21,12.3,31.2c0.6,1.2,1.1,1.6,2.4,0.9c7.1-3.3,14.5-6,22.1-7.9
		c3.3-0.8,6.4-2.6,9.8-0.9c0.2,0.1,0.7-0.3,1.1-0.5c0.7,1.7-0.4,2.9-1.6,2.5c-5.1-1.5-9.4,1.3-14,2.5c-5.2,1.2-10.1,3.2-15,5.4
		c-3.7,1.6-7,3-7.8,7.7c-0.8-1.3-0.9-2.6-0.1-3.2c4-3.1,1.2-6.3-0.1-9c-3.7-7.4-7.1-14.8-9.6-22.7c-0.6-1.7-1.1-3.5-0.9-5.4
		C246.3,323.2,246.5,322.4,247.6,323.4z"/>
	<path class="st3" d="M299.1,249c-2.8-3.7-4.3-4-8-1.6c-2.5,1.6-4.9,3.4-6.5,6.1c-1-0.4-0.4-1.1-0.3-1.6c1.4-3.6,6.7-7.3,10.5-7.4
		C297.9,244.4,298.7,245.1,299.1,249z"/>
	<path class="st3" d="M320.6,324.3c-4.4,4.6-13,4.4-17.5-0.7c2.3-0.2,4,1.1,5.7,1.7c3.6,1.4,6.8,1.1,10.1-0.6
		C319.4,324.4,320,324,320.6,324.3L320.6,324.3z"/>
	<path class="st3" d="M335.1,249.1c-9.7-5.8-10.8-4.3-12.7-1.3c-0.8-2.1,0.2-3.1,1.8-3.7C327.6,242.7,332.8,245.1,335.1,249.1z"/>
	<path class="st3" d="M320.6,324.3c0-0.2,0.1-0.3,0.1-0.5c0.1,0,0.2,0.1,0.3,0.1C320.9,324.1,320.7,324.2,320.6,324.3
		C320.6,324.3,320.6,324.3,320.6,324.3z"/>
	<path class="st5" d="M248.7,292.6c-2.3-4-1.8-8.2-0.4-12.3c2-6,4.8-11.6,6.3-17.8c1.6-6.7,0.7-13.3-0.3-19.9
		c-1.6-9.7-3-19.3-0.3-29.1c3.3-12,17.5-20.2,29.7-17.2c7.8,1.9,13.6,6.1,17.3,13.2c0.4,0.9,1,1.6,1,2.7c0,1.2,2.1,2.6-0.1,3.4
		c-1.7,0.6-3.5,1.3-5-1.2c-2.9-4.7-7.3-8.2-12.5-10.1c-6.9-2.5-17,3.4-20.2,11.3c-2.6,6.4-1.1,12.7,0.4,18.9
		c2.1,8.3,3.2,16.6,0.4,25.1c-1.6,4.7-5,7.8-8.2,11C250.6,276.9,247.1,283.7,248.7,292.6L248.7,292.6z"/>
	<path class="st6" d="M387.9,202.6c-3.2,0-6.5,0-9.7,0c-7.8,0.1-11.8-3.3-12.7-11.2c-0.3-2.5-0.3-5-0.2-7.4
		c0.4-6.5-0.2-12.9-2.3-19.1c-1.6-4.5-4-8.4-7.9-11.2c-5.1-3.7-10.6-4.5-16.4-1.7c-10.3,5-15,14-17.6,24.5
		c-2.6,11-1.7,22.3-2.6,33.4c-0.1,0.9,0,1.7-0.1,2.6c0,0.8-0.2,1.5-1.3,1.4c-0.9-0.1-1.6-0.3-1.7-1.5c-0.4-11.6-1.7-23.2-0.9-34.9
		c0.3-4.1,0.4-8.2,1.6-12.1c2.8-9.8,8.5-17.4,17.8-21.4c11.4-4.9,23.6-0.6,30.4,9.9c3.5,5.4,5.1,11.3,5.3,17.7
		c0.2,5.2-0.5,10.4,0.5,15.5c1.6,9,4.5,12,13.4,13.8c1.5,0.3,2.9,0.6,4.4,0.9C387.9,202.2,387.9,202.4,387.9,202.6z"/>
	<path class="st7" d="M384.4,277.5c-0.9-8.3-6.1-14.1-12-18.9c-10.4-8.4-14.5-19.4-14.7-32.3c-0.1-5.9-1.4-11.7-3.8-17.2
		c-0.3-0.6-0.5-1.2-0.8-1.7c-3.4-5.2-7.4-10-14.3-9.4c-7.5,0.7-12.4,5.3-14.9,12.4c-0.4,1.1-0.6,2.3-1,3.4c-0.2,0.5-0.1,1.8-1.4,1.2
		c-0.7-0.3-1.3-0.5-1.3-1.6c-0.2-7.5,4.8-18.5,11.4-21.5c7.7-3.4,16.4-1.4,22.6,5.2c5.8,6.2,8.1,13.8,8.5,22
		c0.3,4.8,0.8,9.7,1.6,14.4c1.1,6,4.2,10.9,7.8,15.7c2.7,3.6,5.4,7.3,7.9,11C383.3,265.5,385,271.2,384.4,277.5z"/>
	<path class="st8" d="M195,301.4c-2.8-2.8-4.1-11.7-1.1-13.2c2.5-1.3,4-3.2,5.9-4.8c0.3-0.3,1.1-0.3,1.6-0.1
		c2.2,0.8,3.8,0.4,4.9-1.9c0.5-0.9,1.7-1.6,2.8-1c2.1,1.1,3.7,2.7,4,5.1c0.3,2.6-0.3,5.1-1.6,7.5c-0.5,0.9-1,1.7-2.2,1.4
		c-1.3-0.3-0.9-1.4-0.8-2.1c0.2-2.7-1-4.6-3-6.3c1,3,2,5.9,1,9c-0.3,0.9-0.3,2.1-1.6,2.1c-1.2,0-1-1.3-1.1-2c-0.4-3.5-3-5.2-5.4-7.4
		c-0.8,2,0.9,2.7,1.7,3.6c1.7,1.7,2.7,6.2,1.7,8.2c-1.1,2.2-2.6,2-5.1-0.6c0.5-0.9,1.9-0.1,2.5-1.4c-1.9-0.8-4.3-1.1-5.2-3.5
		c0.8,2.3,0,4.8,1.9,6.6C195.5,300.9,195.3,301.2,195,301.4z"/>
	<path class="st8" d="M233.1,306.1c0.5,2.5,2.3,4.4,4,6c2.1,2.1,1.6,4.1,0.1,5.6c-1.9,1.9-3-0.6-4.8-1.5c1.6-0.5,3-0.3,3.9-1.9
		c-1.8-0.5-3.6-1-5.2-1.8c-2.5-1.2-1.9-2.8-1.7-4.4C229.6,306,231.4,306,233.1,306.1L233.1,306.1z"/>
	<path class="st8" d="M233.1,306.2c0.6-1.2,1.3-2.4,1.9-3.7c0.8-2,2.6-1.8,3.2-0.5c1.8,3.9,5.1,7.3,3.8,12.1
		c-0.1,0.3-0.3,0.6-0.7,1.2C239.1,311.5,236.8,308.2,233.1,306.2C233.1,306.1,233.1,306.2,233.1,306.2z"/>
	<path class="st8" d="M243.5,308.5c-1.3-2.3-2.7-3.9-3.4-5.9c-0.7-2,1-3.5,2.6-4.2c2-1,1.6,1.2,2.2,2.2
		C246.3,303.4,244.5,305.6,243.5,308.5z"/>
	<path class="st4" d="M248.6,292.6c1.1,0.1,0.4,0.9,0.3,1.4C248.8,293.5,248.7,293,248.6,292.6C248.7,292.6,248.6,292.6,248.6,292.6
		z"/>
	<path class="st0" d="M632.6,176.9c1.7-0.5,1.4,0.8,1.5,1.7c1.5,11.9-2.7,22.3-8.5,32.2c-1.9-0.5-1.1-2.7-2.9-3.3
		c-0.9,4.9,0.1,9.4,1.1,14c2.3,10.9,2.2,21.9,0.3,32.7c-1.9,11.3-14.1,22.9-25.2,25.4c-8.9,2-17.8,1.7-26.7,1
		c-3.8-0.3-6.8-2.4-9.5-5c-5.4-5.1-11.2-9.9-12.9-17.6c-1-4.6-1.3-9.3-1.1-14.1c0.5-8.8,0-17.7,0.8-26.5c0.3-3.2-1-6-2.9-8.6
		c-3.4-4.5-4.9-10-5.2-15.3c-0.5-7.8,0.2-15.7,3.7-23c0.8-1.7,1.8-3.3,3.5-5.1c-0.7,6-0.7,11.3,1.3,16.4c0.9,2.3,2.5,3.9,4.4,5.4
		c0.4,0.3,0.8,0.7,1.4,0.5c0.6-0.3,0.5-0.9,0.4-1.4c-0.2-1.6-0.5-3.2-0.7-4.8c-1.3-10.1,2.2-19,7.1-27.5c1.1-1.9,2.4-3.7,3.8-5.8
		c1,0.9,0.5,2,0.5,3c-0.1,5.9,0.2,11.8,1.3,17.7c1.5,8,7.3,13.5,15.3,15c4.3,0.8,8.7,1,12.7-0.5c6.3-2.4,9.5-7.8,11.7-13.7
		c2.4-6.8,3.2-13.8,2.7-21c-0.1-1.2,0-2.5,0-4.6c5.5,5.9,9.6,11.7,11.9,18.6c2.6,8,3.4,16.1,0.9,24.4c-0.3,0.9-1.6,2.3-0.1,3.1
		c1.2,0.7,2.1-0.6,3.1-1.2c3.9-2.5,5.6-6.5,6.9-10.8C633.2,177.8,633.2,177.2,632.6,176.9C632.6,176.8,632.6,176.9,632.6,176.9z
		 M586.2,253.6c-3.4,0.3-6.9-0.7-10.3-1.5c-2.3-0.5-4.4-1.6-6.4-2.8c-1.7-1-4.5-1.8-2.7-4.9c0,0-0.1-0.2-0.1-0.3
		c-0.9-0.4-1.9-0.5-2.8-0.1c-0.9,0.4-2.1,1-2.1,2.2c0.1,1.1,1,1.1,2,0.9c0.2-0.1,0.5,0.6,0.9,0.9c7.9,6.9,17,9.6,27.4,7.3
		c2.5-0.6,5-1.7,6.5,2.1c1,2.5,2.8,2.2,4.1-0.4c0.8-1.5,1.3-3.1,1.4-4.9c0.2-2,4.9-7.2,6.5-7.2c0.8,0,1.5,0.3,1.8-0.7
		c0.3-1.1-0.5-1.5-1.3-1.9c-2-1-3-0.5-3.6,1.8c-0.1,0.4-0.5,0.7-0.8,1C600.8,250.2,594.5,254.1,586.2,253.6z M558.6,231.8
		c2.6-1.2,4.6-2.3,6.8-3.1c3.8-1.4,7.6-3.9,11.6-0.2c1.1,1,1.7-0.2,1.6-1.3c-0.3-2.1-1.9-3-3.6-3.7
		C570.2,221.8,560.7,226.4,558.6,231.8z M613.7,230.2c-0.1-0.3-0.2-0.7-0.4-1c-2.6-4.1-11.1-7.6-15.9-6.6c-1.7,0.4-3.3,1.1-3.9,3
		c-0.2,0.7-0.5,1.6,0.1,2.1c0.7,0.6,1.4,0.1,1.9-0.5c2.1-2.3,4.6-2.1,7.4-1.3c3.2,1,6.1,2.3,8.7,4.4
		C612.8,231.5,613.6,231.4,613.7,230.2z M613.1,210.3c-2.2-3.4-5-6.2-8.8-7.6c-2.6-0.9-5.3-0.8-7.4,1.6c-0.5,0.6-0.8,1.4-0.2,2
		c0.6,0.6,1.1-0.2,1.6-0.6c2-1.7,4.2-1.5,6.3-0.3C607.4,207,610.2,208.7,613.1,210.3z M575.3,260.2c6.6,5.3,16.3,5.7,20.6,0.9
		C588.8,264.5,582.1,262.1,575.3,260.2z M574.6,208c-1.6-3.4-4.3-2.9-6.3-2.2c-3.4,1.2-6.5,3-7.8,7.6
		C565.2,210.6,568.3,205.6,574.6,208z"/>
	<path class="st4" d="M300.3,314.9c3.2-4.4,5.2-5.1,10.2-3.7c1.1,0.3,2.1,0.1,3.1-0.3c1.4-0.4,3-0.8,4.4-0.7
		c2.1,0.1,3.7,1.5,4.4,3.3c0.7,1.8-1.4,2.1-2.4,2.8C314.4,320.6,308.3,320.1,300.3,314.9z"/>
	<path class="st4" d="M331.9,284.6c1.8-5.8,1.4-11.3-0.4-16.7c-0.7-2.2-1.9-4.8-4.6-4.8c-2.7,0.1-4,2.6-4.8,5
		c-0.7,2.3-1.1,4.8-1,8.1c-1.6-5-1.7-9,0-13c2.1-4.9,8.4-6.1,12.1-2.3c3.4,3.5,5.5,7.7,6,12.5C339.8,278.5,336.4,283.7,331.9,284.6z
		"/>
	<path class="st4" d="M331,271.3c-0.1,0.9,0,2.4-0.9,2.1c-1.7-0.5-1.9-2.4-1.9-4.1c0-0.8,0-2.2,1-2
		C331.2,267.9,330.8,269.9,331,271.3z"/>
	<path class="st4" d="M296.8,273.8c-0.3-0.3-0.6-0.5-0.7-0.8c-0.5-1.6-1.7-3.1-0.2-4.7c0.5-0.5,0.9-0.1,1,0.2
		C297.7,270.2,298.6,272,296.8,273.8z"/>
	<path class="st8" d="M276.1,265c0.7,0.4,1.5,0.8,2.4,1.2c-1.4,0.7-2.1,0.1-2.7-0.8C275.9,265.3,276,265.2,276.1,265z"/>
	<path class="st3" d="M586.9,252.9c8.3,0.5,14.6-3.4,20.3-8.5c0.3-0.3,0.7-0.6,0.8-1c0.6-2.3,1.6-2.8,3.6-1.8
		c0.8,0.4,1.6,0.9,1.3,1.9c-0.3,1-1,0.7-1.8,0.7c-1.6,0-6.3,5.2-6.5,7.2c-0.2,1.7-0.7,3.4-1.4,4.9c-1.3,2.6-3.1,2.9-4.1,0.4
		c-1.5-3.8-4-2.6-6.5-2.1c-10.4,2.3-19.4-0.4-27.4-7.3c-0.3-0.3-0.7-0.9-0.9-0.9c-1,0.2-1.9,0.2-2-0.9c-0.1-1.3,1.1-1.8,2.1-2.2
		c0.9-0.4,1.9-0.4,2.8,0.1c0.1,0,0.2,0.2,0.1,0.3c-1.8,3.1,1,3.9,2.7,4.9c2,1.2,4.2,2.3,6.4,2.8C580,252.2,583.5,253.1,586.9,252.9z
		 M603.1,251.2c-4.3,1.6-4.3,1.6-2.1,5.3C602.4,255.1,602.3,253.1,603.1,251.2z"/>
	<path class="st3" d="M559.4,231.1c2.1-5.4,11.6-10.1,16.3-8.4c1.8,0.6,3.3,1.6,3.6,3.7c0.2,1.1-0.5,2.3-1.6,1.3
		c-4-3.6-7.8-1.2-11.6,0.2C564,228.8,561.9,229.9,559.4,231.1z"/>
	<path class="st3" d="M614.4,229.5c-0.1,1.1-0.9,1.2-2.2,0.2c-2.6-2.1-5.5-3.5-8.7-4.4c-2.7-0.8-5.2-1-7.4,1.3
		c-0.6,0.6-1.2,1-1.9,0.5c-0.7-0.5-0.4-1.4-0.1-2.1c0.6-1.8,2.2-2.6,3.9-3c4.9-1.1,13.3,2.4,15.9,6.6
		C614.2,228.8,614.3,229.2,614.4,229.5z"/>
	<path class="st3" d="M613.8,209.6c-2.8-1.6-5.6-3.3-8.5-4.9c-2.1-1.1-4.3-1.4-6.3,0.3c-0.5,0.4-1,1.2-1.6,0.6
		c-0.6-0.6-0.3-1.4,0.2-2c2.1-2.4,4.8-2.5,7.4-1.6C608.8,203.4,611.6,206.2,613.8,209.6z"/>
	<path class="st3" d="M576,259.4c6.8,1.9,13.5,4.3,20.6,0.9C592.3,265.1,582.7,264.8,576,259.4z"/>
	<path class="st3" d="M575.3,207.3c-6.3-2.4-9.4,2.6-14.1,5.4c1.3-4.5,4.4-6.4,7.8-7.6C571.1,204.3,573.7,203.8,575.3,207.3z"/>
	<path class="st9" d="M603.1,251.2c-0.8,1.9-0.7,3.9-2.1,5.3C598.8,252.8,598.8,252.8,603.1,251.2z"/>
</g>
<path class="st8" d="M590.3,376.5c-0.6,0-0.6,1,0,1C590.9,377.5,590.9,376.5,590.3,376.5z"/>
<path class="st10" d="M289.7,371.3c0-0.3-0.3-0.5-0.6-0.5c-0.1-0.4-0.2-0.7-0.4-1.1c-0.2-0.6-1.2-0.3-1,0.3c0.3,0.8,0.6,1.5,0.4,2.4
	c-0.1,0.2-0.1,0.3-0.2,0.5c-0.1,0.2,0,0.4,0.2,0.5c0,0.1,0,0.1-0.1,0.2c0,0,0,0,0,0c-0.2,0.2-0.4,0.4-0.6,0.6
	c-0.2,0.2-0.2,0.5,0,0.7c-0.4,0.8-0.8,1.5-1.1,2.3c-0.1-0.1-0.2-0.1-0.3-0.1c-0.6,0-0.6,1,0,1c0,0,0,0,0.1,0c0,0,0,0,0,0
	c-0.6,0.3-1.2,0.3-1.9,0.3c-1.7-0.2-3.4-0.3-5-0.8c-0.6-0.2-0.9,0.8-0.3,1c1.2,0.3,2.5,0.5,3.8,0.6c1.1,0.1,2.7,0.7,3.8,0.2
	c1.8-0.7,2.1-3.5,2.3-5.1C289.4,373.3,289.7,372.3,289.7,371.3z"/>
<path class="st10" d="M288.4,365.3c-0.4,0.2-0.3,0.7,0,0.9c1,0.5,1.7,2.3,1.1,3.3c-0.3,0.6,0.5,1.1,0.9,0.5c0.1-0.1,0.1-0.2,0.1-0.4
	c0.1,0,0.2-0.1,0.2-0.2C291.5,368,290.5,364.4,288.4,365.3z"/>
<path class="st3" d="M290.7,364.1c-0.4-0.5-1.1,0.2-0.7,0.7c2.1,2.2-0.3,6.9-1.1,9.3c-0.7,2.2-1.9,4.6-1.9,6.9c0,0.6,1,0.6,1,0
	c0-1.9,1-4,1.6-5.7c0.5-1.7,1.1-3.5,1.6-5.2C291.8,368.1,292.2,365.8,290.7,364.1z"/>
<path class="st10" d="M304.3,189.1c-0.6,0-0.6,1,0,1C304.9,190.1,304.9,189.1,304.3,189.1z"/>
<line class="st11" x1="551" y1="582.2" x2="562.9" y2="577.7"/>
<line class="st12" x1="562.9" y1="577.7" x2="540.2" y2="468.2"/>
<path class="st13" d="M548.2,417.3c0.5-17.8,1.8-35.5,1.4-53.3"/>
<line class="st13" x1="549.6" y1="364" x2="554.4" y2="333.2"/>
<path class="st14" d="M553.6,332.7c0,0.1-0.1,0.2-0.1,0.2c0,0,0,0,0,0c0,0,0,0,0,0.1c-0.5,1.3-0.6,2.7-0.8,4.1
	c-4.2,21.4-6.2,43.2-5.4,65c0.1,3.7,0.2,7.4,0.2,11c-0.6,11.3-4.1,22.4-5.6,33.7c-0.5,1.9-0.9,3.7-1.2,5.6
	c-0.6,4.2,0.1,8.3,0.2,12.4c0,0.5,0,1,0,1.5c0,0.1,0,0.3,0,0.4c-2.3-2.2-4.5-4.5-6.4-7c-3.1-4.2-5.6-8.9-7.2-14c0,0,0-0.1-0.1-0.1
	c-0.6-4,1.1-8.3,1.9-12.1c2.3-11.6,2.4-23.3,0.6-35c0-0.2-0.1-0.3-0.2-0.5c0.7,3.5,0.3,7.5-0.7,10.8c0.2,4.1,0.2,8.2-0.1,12.3
	c-0.5,7.3-3.1,14.4-3.6,21.6c-0.6,8.3,6,17.1,12.1,23.2c0.4,0.4,0.8,0.8,1.3,1.3c0.6,0.6,1.1,1.1,1.7,1.6c0.2,0.1,0.3,0.2,0.5,0.2
	c0,0.1,0,0.2,0,0.4c-0.1,0.3-0.1,0.6-0.2,1c0,0.2,0,0.4,0,0.6c-0.2,3.1-0.1,6.2,0.5,9.4c-0.1,0.2-0.1,0.4,0,0.6
	c0.1,0.2,0.1,0.4,0.2,0.5c0.1,0.7,0.3,1.3,0.5,2c0.1,0.3,0.2,0.5,0.5,0.6c0.9,2.8,1.5,5.6,2,8.5c0.2,1.3,2.1,0.7,1.9-0.5
	c-0.4-2.8-1-5.5-1.9-8.2c0.3-0.2,0.5-0.6,0.4-1c-0.9-5.1-1.4-10.3-1.5-15.5c0,0,0,0,0-0.1c0,0,0,0,0,0c-0.1-0.1-0.1-0.2-0.2-0.3
	c0-1.7-0.1-3.3-0.2-5c0.1-0.3,0.2-0.5,0.4-0.7c-0.3-0.9-0.5-1.8-0.6-2.7c0-0.8-0.1-1.6,0-2.4c0.2-5.9,2.4-11.7,3.9-17.4
	c2.8-10.9,3.7-21.5,3.2-32.7c-1-22.4,0.6-44.7,4.8-66.8c0,0,0,0,0-0.1c0.1-0.3,0.1-0.7,0.2-1.1c0.2-0.9,0.4-1.8,0.5-2.7
	c0-0.2,0-0.3,0-0.5c0.1-0.5,0.2-0.9,0.4-1.4C555.9,332.4,554.1,331.7,553.6,332.7z"/>
<path class="st14" d="M240.8,162.6c-12.4,11.8-12.8,28-13,34c-0.2,6.8,1.5,15.2,5,32c2.8,13.4,4.6,17.9,2,23
	c-5.3,10.2-21.3,9.4-21,12c0.3,2.6,16.8,6.8,25-1c4.3-4.1,4.6-10,5-21c0.4-12.9-1.9-16.1-2-30c0-9.9-0.1-14.9,2-21
	c1.1-3.4,7.5-22.2,24-25c10.4-1.8,20.6,3.6,26,10c5.8,7,7.7,17.3,8,19c0.6,3.2,0.8,5.2,2,11c1.1,5.1,2.2,9.2,3,12c1,0,3.6-0.2,5-2
	c0.3-0.4,0.7-1.1,1-4c0.3-3.7,0-6.1,0-10.4c0-0.9,0-1.9,0-1.9c0-1.9,0-3.2,0-3.4c0-1.7-0.5-8.2-2-13.3c-4.2-14.4-16-23-16-23
	c-3.1-2.3-10.5-7-21-8C271.4,151.3,254,150,240.8,162.6z"/>
<path class="st1" d="M286.7,257.8c-1.1,1.1-2.1,2.3-3,3.5c-0.3-0.2-0.7-0.2-1.1,0.2c-0.9,1-1.6,2.1-2.3,3.2l1.4-2.5
	c0.5-1-0.8-2.1-1.6-1.2c0,0.1-0.1,0.1-0.1,0.2c-0.3-0.1-0.6-0.1-0.9,0c-0.7,0.3-1.3,0.7-1.8,1.2c-0.1-0.2-0.2-0.4-0.3-0.5
	c0.3-0.5,0.6-1,0.9-1.5c0.7-1.1-1-2.1-1.7-1c-1.2,1.8-2.2,3.8-2.8,5.8c-1,2.1-1.4,4.4-1.1,6.9c0.1,0.4,0.3,0.7,0.6,0.8
	c-0.2,0.6-0.4,1.1-0.6,1.7c-0.3,0.8,0.5,1.4,1.2,1.2c0.4-0.1,0.9-0.2,1.3-0.3c1.1-0.2,0.8-1.7-0.1-1.9c0.1-0.3,0.2-0.6,0.3-0.9
	c0,0,0,0,0,0c0,0.1,0,0.1,0.1,0.2c0.2,0.5,0.7,0.6,1.1,0.4c0,0.2-0.1,0.3-0.1,0.4c0,0.1,0,0.2,0,0.3c-1.3,2.5-2.6,5-3.8,7.5
	c-0.6,1.1,1.1,2.2,1.7,1c1.1-2.1,2.2-4.3,3.3-6.4c0.2,0.9,1.7,1.2,1.9,0.1c0-0.2,0.1-0.4,0.1-0.6c0.6,0.1,1.3-0.2,1.3-0.9
	c0.6-5.9,3.2-11.2,7.4-15.5C289,258.3,287.6,256.9,286.7,257.8z"/>
<path class="st1" d="M345.4,264.2c-0.1,0-0.3,0-0.4-0.1c-0.1-0.3-0.3-0.8-0.3-0.9c-0.2-0.3-0.5-0.6-0.9-0.8
	c-0.5-0.3-1.1-0.4-1.6-0.3c0.4-0.6,0.6-1.3,0.7-2c0.5-0.2,0.9-0.4,1.1-0.5c0.8-0.5,0.5-2-0.5-1.9l-1.4,0.1c-0.5,0-1,0.4-1,1
	c-0.6,0.3-1.1,0.7-1.5,1.1c-0.3-0.9-1.6-0.7-1.9,0.1c0,0,0,0,0,0c0-0.1-0.1-0.2-0.2-0.3c-0.1-0.1-0.2-0.2-0.3-0.2
	c0.5-0.2,0.9-0.8,0.6-1.5l-0.6-1.2c-0.4-0.9-1.5-0.5-1.8,0.2c-0.1,0-0.2,0.1-0.3,0.1c-0.3-0.3-0.6-0.6-0.9-0.9
	c-0.9-0.9-2.3,0.5-1.4,1.4c0.1,0.1,0.2,0.2,0.3,0.3c-0.2,0.4-0.1,1.1,0.3,1.4l1.6,1.1c0.3,0.4,0.6,0.6,1,0.8
	c0.6,0.7,1.1,1.4,1.6,2.2c1.3,2.2,1.9,4.6,2.5,7.1c0.1,0.3,0.2,0.5,0.4,0.6c0,0.3,0.1,0.5,0.1,0.8c0.2,1.3,2.1,0.7,1.9-0.5
	c-0.1-0.9,0-1-0.3-1.9c-0.2-0.7-0.5-1.5-0.8-2.2c0.8,0,1.6-0.1,2.4-0.1c0.6,0,0.9-0.4,0.9-0.9c0.2,0,0.4-0.1,0.7-0.2
	C346.4,265.6,346.3,264.4,345.4,264.2z"/>
<path class="st14" d="M297.2,260.5c-5.6-3.1-12.3-0.5-14.2,5.6c-0.4,1.2,1.5,1.8,1.9,0.5c1.5-4.9,6.8-6.9,11.3-4.4
	C297.3,262.8,298.3,261.1,297.2,260.5z"/>
<path class="st15" d="M301.8,168.6c-0.9-1.2-9-12-23-15c-16.2-3.5-34.7,4-43,17c-10,15.6-4.8,38.7,0,60c1.8,8,4.3,16.1,0,23
	c-4.3,6.9-13.2,9.2-20,10c2,1,9.6,4.3,16.7,1c1.2-0.6,2.3-1.3,3.3-2c0.8-0.9,1.9-2.2,3-4c3.6-6.3,3.1-12.8,3-15
	c-1.8-26.8-3.6-55.2,9-70c1.2-1.4,7.7-8.7,18-10c11-1.4,19.6,5,21,6c17.6,13.4,15.2,45.2,18,45c0.5,0,0.8-1.2,1-2
	c3.6-15.4,0-28,0-28C307.1,178.8,305.7,173.9,301.8,168.6z"/>
</svg>
